<?xml version="1.0" encoding="utf-8"?>
<!-- Generator: Adobe Illustrator 25.2.3, SVG Export Plug-In . SVG Version: 6.00 Build 0)  -->
<svg version="1.1" id="Layer_1" xmlns="http://www.w3.org/2000/svg" xmlns:xlink="http://www.w3.org/1999/xlink" x="0px" y="0px"
	 viewBox="0 0 43.8 34.1" style="enable-background:new 0 0 43.8 34.1;" xml:space="preserve">
<style type="text/css">
	.st0{display:none;}
	.st1{fill:#FFFFFF;}
</style>
<g id="Base" class="st0">
</g>
<g id="Dibujo">
	<g>
		<path class="st1" d="M35.1,21.1c0.6-1.3,0.9-2.6,0.9-4.1c0-5.1-4.1-9.2-9.2-9.2c-3,0-5.8,1.5-7.5,3.9c-0.1,0-0.2,0-0.3,0
			c-5,0-9.3,3.3-10.7,8c-0.4-0.1-0.8-0.1-1.1-0.1c-4,0-7.2,3.2-7.2,7.2S3.2,34,7.2,34h23.6c4,0,7.2-3.2,7.2-7.2
			C38,24.5,36.8,22.4,35.1,21.1z M26.8,10.5c3.6,0,6.6,2.9,6.6,6.6c0,1-0.2,2-0.7,2.9c-0.6-0.2-1.3-0.3-1.9-0.3
			c-0.3,0-0.7,0.1-1.1,0.1c-1.1-3.6-3.8-6.4-7.4-7.5C23.5,11.2,25.1,10.5,26.8,10.5z M30.8,31.5H7.1c-2.5,0-4.6-2.1-4.6-4.6
			s2.1-4.6,4.6-4.6c0.2,0,0.5,0,0.8,0.1v1.2c0,0.7,0.6,1.3,1.3,1.3s1.3-0.6,1.3-1.3v-2.1c0.7-4.1,4.2-7.1,8.4-7.1s7.7,3,8.4,7.1v2.1
			c0,0.7,0.6,1.3,1.3,1.3s1.3-0.6,1.3-1.3v-1.2c0.3-0.1,0.6-0.1,0.8-0.1c2.5,0,4.6,2.1,4.6,4.6S33.3,31.5,30.8,31.5z"/>
		<path class="st1" d="M26.8,5.2c0.7,0,1.3-0.6,1.3-1.3V1.3c0-0.7-0.6-1.3-1.3-1.3s-1.3,0.6-1.3,1.3v2.6C25.5,4.7,26.1,5.2,26.8,5.2
			z"/>
		<path class="st1" d="M42.6,15.7h-2.7c-0.7,0-1.3,0.6-1.3,1.3s0.6,1.3,1.3,1.3h2.6c0.7,0,1.3-0.6,1.3-1.3S43.3,15.7,42.6,15.7z"/>
		<path class="st1" d="M36.1,9.1c0.3,0,0.7-0.1,0.9-0.4l1.9-1.9c0.5-0.5,0.5-1.3,0-1.9c-0.5-0.5-1.3-0.5-1.9,0l-1.9,1.9
			c-0.5,0.5-0.5,1.3,0,1.9C35.4,9,35.8,9.1,36.1,9.1z"/>
		<path class="st1" d="M16.6,8.7c0.3,0.3,0.6,0.4,0.9,0.4s0.7-0.1,0.9-0.4c0.5-0.5,0.5-1.3,0-1.9L16.6,5c-0.5-0.5-1.3-0.5-1.9,0
			c-0.5,0.5-0.5,1.3,0,1.9L16.6,8.7z"/>
	</g>
</g>
</svg>
