<?xml version="1.0" encoding="utf-8"?>
<!-- Generator: Adobe Illustrator 25.2.3, SVG Export Plug-In . SVG Version: 6.00 Build 0)  -->
<svg version="1.1" id="Layer_1" xmlns="http://www.w3.org/2000/svg" xmlns:xlink="http://www.w3.org/1999/xlink" x="0px" y="0px"
	 viewBox="0 0 43.8 34.1" style="enable-background:new 0 0 43.8 34.1;" xml:space="preserve">
<style type="text/css">
	.st0{display:none;}
	.st1{fill:#FFFFFF;}
</style>
<g id="Base" class="st0">
</g>
<g id="Dibujo">
	<g>
		<path class="st1" d="M37.5,18.3c2.2-1.9,3.5-4.7,3.5-7.7c0-0.8-0.7-1.5-1.5-1.5c-4.1,0-7.4-3.3-7.4-7.4c0-0.8-0.7-1.5-1.5-1.5
			c-5.2,0-9.5,3.9-10.2,8.9c-5,0.5-9.2,4-10.6,8.9c-0.4-0.1-0.9-0.1-1.2-0.1c-4.5,0-8.1,3.6-8.1,8.1s3.6,8.1,8.1,8.1h26.5
			c4.5,0,8.1-3.6,8.1-8.1C43.3,22.4,40.8,19.3,37.5,18.3z M29.4,3.3c0.7,4.4,4.2,7.9,8.6,8.6c-0.5,2.4-2.1,4.4-4.3,5.4
			c-1.6-4.4-5.5-7.5-10.2-8.1C24.1,6.2,26.4,3.9,29.4,3.3z M35.2,31.2H8.6c-2.8,0-5.2-2.3-5.2-5.2s2.3-5.2,5.2-5.2
			c0.2,0,0.5,0.1,0.9,0.1v1.4c0,0.8,0.7,1.5,1.5,1.5s1.5-0.7,1.5-1.5v-2.4c0.8-4.6,4.7-7.9,9.4-7.9s8.6,3.3,9.4,7.9v2.4
			c0,0.8,0.7,1.5,1.5,1.5s1.5-0.7,1.5-1.5V21c0.3-0.1,0.7-0.1,0.9-0.1c2.8,0,5.2,2.3,5.2,5.2S38,31.2,35.2,31.2z"/>
	</g>
</g>
</svg>
