<?xml version="1.0" encoding="utf-8"?>
<!-- Generator: Adobe Illustrator 25.2.3, SVG Export Plug-In . SVG Version: 6.00 Build 0)  -->
<svg version="1.1" id="Layer_1" xmlns="http://www.w3.org/2000/svg" xmlns:xlink="http://www.w3.org/1999/xlink" x="0px" y="0px"
	 viewBox="0 0 43.8 34.1" style="enable-background:new 0 0 43.8 34.1;" xml:space="preserve">
<style type="text/css">
	.st0{fill:#FFFFFF;}
</style>
<g id="Dibujo">
	<g>
		<path class="st0" d="M35.6,13c-0.4,0-0.8,0.1-1.3,0.2C32.7,7.9,27.8,4,21.9,4S11.2,7.7,9.6,13.1c-0.4,0-0.9-0.1-1.3-0.1
			C3.7,13,0,16.7,0,21.3s3.7,8.3,8.3,8.3h27.2c4.6,0,8.3-3.7,8.3-8.3S40.1,13,35.6,13z M35.6,26.7H8.3c-3,0-5.3-2.4-5.3-5.3
			S5.3,16,8.3,16c0.2,0,0.5,0.1,0.9,0.2v1.4c0,0.8,0.7,1.5,1.5,1.5s1.5-0.7,1.5-1.5v-2.4C13,10.6,17,7,21.9,7s8.8,3.4,9.7,8.2v2.4
			c0,0.8,0.7,1.5,1.5,1.5s1.5-0.7,1.5-1.5v-1.4c0.4-0.1,0.7-0.2,0.9-0.2c3,0,5.3,2.4,5.3,5.3S38.6,26.7,35.6,26.7z"/>
	</g>
</g>
</svg>
