<?xml version="1.0" encoding="utf-8"?>
<!-- Generator: Adobe Illustrator 25.2.3, SVG Export Plug-In . SVG Version: 6.00 Build 0)  -->
<svg version="1.1" id="Layer_1" xmlns="http://www.w3.org/2000/svg" xmlns:xlink="http://www.w3.org/1999/xlink" x="0px" y="0px"
	 viewBox="0 0 43.8 34.1" style="enable-background:new 0 0 43.8 34.1;" xml:space="preserve">
<style type="text/css">
	.st0{fill:#EDEDED;}
	.st1{display:none;}
	.st2{fill:#FFFFFF;}
</style>
<path class="st0" d="M20.4,7.3c0,0,4.2-2.8,8.4-1.5c6.7,2.1,6.9,7.2,6.9,7.2s8.1-1.1,8.1,6.9c0.1,8.4-8.7,7.1-8.7,7.1l0.4-2.9
	l0.7-2.3L35.9,19l-3.3-2.8l-2.5-0.2l-1.8,0.6l-1.3-2.2c0,0-1.4-1.9-1.6-2.1c-0.2-0.2-3.4-2.5-3.4-2.5l-3.3-0.7L20.4,7.3z"/>
<g id="Base" class="st1">
</g>
<g id="Dibujo">
	<g>
		<path class="st2" d="M30.1,14.8c-0.3,0-0.7,0.1-1.1,0.2c-1.4-4.6-5.5-7.8-10.5-7.8S9.4,10.4,8.1,15c-0.4-0.1-0.8-0.2-1.1-0.2
			C3.1,14.8,0,18,0,21.9s3.1,7.1,7.1,7.1h23.2c3.9,0,7.1-3.1,7.1-7.1S34.1,14.8,30.1,14.8z M30.1,26.4H7.1c-2.5,0-4.5-2-4.5-4.5
			s2-4.5,4.5-4.5c0.2,0,0.5,0.1,0.8,0.2v1.2c0,0.7,0.6,1.3,1.3,1.3s1.3-0.6,1.3-1.3v-2.1c0.7-4,4.1-6.9,8.2-6.9s7.5,2.9,8.2,6.9v2.1
			c0,0.7,0.6,1.3,1.3,1.3c0.7,0,1.3-0.6,1.3-1.3v-1.2c0.3-0.1,0.6-0.2,0.8-0.2c2.5,0,4.5,2,4.5,4.5S32.7,26.4,30.1,26.4z"/>
	</g>
</g>
</svg>
