<?xml version="1.0" encoding="utf-8"?>
<!-- Generator: Adobe Illustrator 25.2.3, SVG Export Plug-In . SVG Version: 6.00 Build 0)  -->
<svg version="1.1" id="Layer_1" xmlns="http://www.w3.org/2000/svg" xmlns:xlink="http://www.w3.org/1999/xlink" x="0px" y="0px"
	 viewBox="0 0 43.8 34.1" style="enable-background:new 0 0 43.8 34.1;" xml:space="preserve">
<style type="text/css">
	.st0{display:none;}
	.st1{fill:#FFFFFF;}
</style>
<g id="Base" class="st0">
</g>
<g id="Dibujo">
	<path class="st1" d="M20,30.5c-0.5,0-0.9,0.4-0.9,0.9v1.8c0,0.5,0.4,0.9,0.9,0.9s0.9-0.4,0.9-0.9v-1.8C20.9,30.9,20.5,30.5,20,30.5
		z M18.4,6c0.2,0.2,0.4,0.3,0.6,0.3c0.2,0,0.5-0.1,0.6-0.3C20,5.6,20,5,19.7,4.7l-1.3-1.3C18,3,17.5,3,17,3.4s-0.4,0.9,0,1.3L18.4,6
		z M25.4,3.6c0.5,0,0.9-0.4,0.9-0.9V0.9c0-0.5-0.4-0.9-0.9-0.9s-0.9,0.4-0.9,0.9v1.8C24.5,3.2,24.9,3.6,25.4,3.6z M31.7,6.2
		c0.2,0,0.5-0.1,0.6-0.3l1.3-1.3c0.4-0.4,0.4-0.9,0-1.3s-0.9-0.4-1.3,0L31,4.6c-0.4,0.4-0.4,0.9,0,1.3C31.2,6.1,31.5,6.2,31.7,6.2z
		 M15.9,27.8c-0.5,0-0.9,0.4-0.9,0.9v1.8c0,0.5,0.4,0.9,0.9,0.9s0.9-0.4,0.9-0.9v-1.8C16.8,28.2,16.4,27.8,15.9,27.8z M36,10.8h-1.8
		c-0.5,0-0.9,0.4-0.9,0.9s0.4,0.9,0.9,0.9H36c0.5,0,0.9-0.4,0.9-0.9S36.5,10.8,36,10.8z M20,25.1c-0.5,0-0.9,0.4-0.9,0.9v1.8
		c0,0.5,0.4,0.9,0.9,0.9s0.9-0.4,0.9-0.9V26C20.9,25.5,20.5,25.1,20,25.1z M31,14.4c0.4-0.9,0.6-1.8,0.6-2.8c0-3.5-2.8-6.3-6.3-6.3
		c-2.1,0-4,1-5.2,2.7C20,8,20,8,19.9,8c-3.4,0-6.4,2.2-7.3,5.5c-0.3,0-0.5-0.1-0.8-0.1c-2.7,0-4.9,2.2-4.9,4.9s2.2,4.9,4.9,4.9H15
		V25c0,0.5,0.4,0.9,0.9,0.9s0.9-0.4,0.9-0.9v-1.8h6.3V25c0,0.5,0.4,0.9,0.9,0.9s0.9-0.4,0.9-0.9v-1.8H28c2.7,0,4.9-2.2,4.9-4.9
		C33,16.8,32.2,15.3,31,14.4z M25.4,7.2c2.5,0,4.5,2,4.5,4.5c0,0.7-0.2,1.4-0.5,2c-0.4-0.1-0.9-0.2-1.3-0.2c-0.2,0-0.5,0-0.8,0.1
		c-0.7-2.5-2.6-4.4-5-5.1C23,7.6,24.2,7.2,25.4,7.2z M28,21.5H11.9c-1.7,0-3.1-1.4-3.1-3.1s1.4-3.1,3.1-3.1c0.1,0,0.3,0,0.5,0.1v0.8
		c0,0.5,0.4,0.9,0.9,0.9s0.9-0.4,0.9-0.9v-1.4c0.5-2.8,2.9-4.8,5.7-4.8c2.9,0,5.3,2,5.7,4.8v1.4c0,0.5,0.4,0.9,0.9,0.9
		s0.9-0.4,0.9-0.9v-0.8c0.2,0,0.4-0.1,0.5-0.1c1.7,0,3.1,1.4,3.1,3.1C31.2,20.1,29.8,21.5,28,21.5z M24,27.8c-0.5,0-0.9,0.4-0.9,0.9
		v1.8c0,0.5,0.4,0.9,0.9,0.9s0.9-0.4,0.9-0.9v-1.8C24.9,28.2,24.5,27.8,24,27.8z"/>
</g>
</svg>
