<?xml version="1.0" encoding="utf-8"?>
<!-- Generator: Adobe Illustrator 25.2.3, SVG Export Plug-In . SVG Version: 6.00 Build 0)  -->
<svg version="1.1" id="Layer_1" xmlns="http://www.w3.org/2000/svg" xmlns:xlink="http://www.w3.org/1999/xlink" x="0px" y="0px"
	 viewBox="0 0 43.8 34.1" style="enable-background:new 0 0 43.8 34.1;" xml:space="preserve">
<style type="text/css">
	.st0{display:none;}
	.st1{fill:#FFFFFF;}
</style>
<g id="Base" class="st0">
</g>
<g id="Dibujo">
	<g>
		<path class="st1" d="M32.2,11.9c1.4-1.3,2.3-3.1,2.3-5.1c0-0.5-0.4-1-1-1c-2.7,0-4.9-2.2-4.9-4.9c0-0.5-0.4-1-1-1
			c-3.4,0-6.3,2.6-6.7,5.9c-3.3,0.4-6.1,2.7-7,5.9c-0.3-0.1-0.6-0.1-0.8-0.1c-2.9,0-5.3,2.4-5.3,5.3s2.4,5.3,5.3,5.3h3.4v1.9
			c0,0.5,0.4,1,1,1s1-0.4,1-1v-1.9h6.8v1.9c0,0.5,0.4,1,1,1s1-0.4,1-1v-1.9h3.4c2.9,0,5.3-2.4,5.3-5.3C36,14.7,34.4,12.6,32.2,11.9z
			 M26.8,2.1c0.5,2.9,2.8,5.2,5.7,5.7c-0.3,1.6-1.4,2.9-2.8,3.6c-1-2.9-3.6-5-6.7-5.3C23.3,4,24.9,2.4,26.8,2.1z M30.6,20.4H13.2
			c-1.9,0-3.4-1.5-3.4-3.4s1.5-3.4,3.4-3.4c0.1,0,0.4,0,0.6,0.1v0.9c0,0.5,0.4,1,1,1s1-0.4,1-1V13c0.5-3,3.1-5.2,6.2-5.2
			c3.1,0,5.7,2.2,6.2,5.2v1.6c0,0.5,0.4,1,1,1s1-0.4,1-1v-0.9c0.2,0,0.4-0.1,0.6-0.1c1.9,0,3.4,1.5,3.4,3.4S32.5,20.4,30.6,20.4z"/>
		<path class="st1" d="M21.9,24.3c-0.5,0-1,0.4-1,1v1.9c0,0.5,0.4,1,1,1s1-0.4,1-1v-1.9C22.9,24.8,22.4,24.3,21.9,24.3z"/>
		<path class="st1" d="M21.9,30.2c-0.5,0-1,0.4-1,1v1.9c0,0.5,0.4,1,1,1s1-0.4,1-1v-1.9C22.9,30.6,22.4,30.2,21.9,30.2z"/>
		<path class="st1" d="M17.5,27.2c-0.5,0-1,0.4-1,1v1.9c0,0.5,0.4,1,1,1s1-0.4,1-1v-1.9C18.5,27.7,18.1,27.2,17.5,27.2z"/>
		<path class="st1" d="M26.3,27.2c-0.5,0-1,0.4-1,1v1.9c0,0.5,0.4,1,1,1s1-0.4,1-1v-1.9C27.2,27.7,26.8,27.2,26.3,27.2z"/>
	</g>
</g>
</svg>
