<?xml version="1.0" encoding="utf-8"?>
<!-- Generator: Adobe Illustrator 25.2.3, SVG Export Plug-In . SVG Version: 6.00 Build 0)  -->
<svg version="1.1" id="Layer_1" xmlns="http://www.w3.org/2000/svg" xmlns:xlink="http://www.w3.org/1999/xlink" x="0px" y="0px"
	 viewBox="0 0 43.8 34.1" style="enable-background:new 0 0 43.8 34.1;" xml:space="preserve">
<style type="text/css">
	.st0{display:none;}
	.st1{fill:#FFFFFF;}
</style>
<g id="Base" class="st0">
</g>
<g id="Dibujo">
	<g>
		<path class="st1" d="M32.3,11.9c1.4-1.3,2.3-3.1,2.3-5.1c0-0.5-0.4-1-1-1c-2.7,0-4.9-2.2-4.9-4.9c0-0.5-0.4-1-1-1
			c-3.4,0-6.3,2.6-6.8,5.9c-3.3,0.4-6.1,2.7-7,5.9c-0.3-0.1-0.6-0.1-0.8-0.1c-3,0-5.4,2.4-5.4,5.4s2.4,5.4,5.4,5.4h3.4v7.8
			c0,0.5,0.4,1,1,1c0.5,0,1-0.4,1-1v-7.8h6.8v7.8c0,0.5,0.4,1,1,1c0.5,0,1-0.4,1-1v-7.8h3.4c3,0,5.4-2.4,5.4-5.4
			C36.1,14.6,34.5,12.6,32.3,11.9z M27,2c0.5,2.9,2.8,5.2,5.7,5.7c-0.3,1.6-1.4,2.9-2.9,3.6c-1-2.9-3.6-5-6.7-5.4
			C23.4,4,25,2.4,27,2z M30.8,20.5H13.2c-1.9,0-3.4-1.5-3.4-3.4s1.5-3.4,3.4-3.4c0.1,0,0.4,0,0.6,0.1v0.9c0,0.5,0.4,1,1,1s1-0.4,1-1
			V13c0.5-3,3.1-5.3,6.2-5.3c3.1,0,5.7,2.2,6.2,5.3v1.6c0,0.5,0.4,1,1,1c0.5,0,1-0.4,1-1v-0.9c0.2,0,0.4-0.1,0.6-0.1
			c1.9,0,3.4,1.5,3.4,3.4S32.6,20.5,30.8,20.5z"/>
		<path class="st1" d="M22,23.4c-0.5,0-1,0.4-1,1v8.8c0,0.5,0.4,1,1,1c0.5,0,1-0.4,1-1v-8.8C23,23.8,22.5,23.4,22,23.4z"/>
	</g>
</g>
</svg>
