<?xml version="1.0" encoding="utf-8"?>
<!-- Generator: Adobe Illustrator 25.2.3, SVG Export Plug-In . SVG Version: 6.00 Build 0)  -->
<svg version="1.1" id="Layer_1" xmlns="http://www.w3.org/2000/svg" xmlns:xlink="http://www.w3.org/1999/xlink" x="0px" y="0px"
	 viewBox="0 0 43.8 34.1" style="enable-background:new 0 0 43.8 34.1;" xml:space="preserve">
<style type="text/css">
	.st0{display:none;}
	.st1{fill:#FFFFFF;}
</style>
<g id="Base" class="st0">
</g>
<g id="Dibujo">
	<path class="st1" d="M25.5,4c0.5,0,1-0.4,1-1V1.2c0-0.5-0.4-1-1-1c-0.5,0-1,0.4-1,1v1.9C24.5,3.6,25,4,25.5,4z M31.5,15.7
		c0.5-0.9,0.7-1.9,0.7-3c0-3.7-3-6.7-6.7-6.7c-2.2,0-4.3,1.1-5.5,2.9c-0.1,0-0.2,0-0.2,0c-3.7,0-6.8,2.4-7.8,5.8
		c-0.3-0.1-0.6-0.1-0.8-0.1c-2.9,0-5.3,2.4-5.3,5.3s2.4,5.3,5.3,5.3h5.4l-2,2.8c-0.2,0.3-0.2,0.7,0,1s0.5,0.5,0.8,0.5h1.1l-1.9,2.8
		c-0.3,0.4-0.2,1,0.3,1.3c0.2,0.1,0.3,0.2,0.5,0.2c0.3,0,0.6-0.2,0.8-0.4l2.9-4.3c0.2-0.3,0.2-0.7,0-1s-0.5-0.5-0.8-0.5h-1.1
		l1.6-2.4h2.5l-0.9,1.4c-0.2,0.3-0.2,0.7,0,1s0.5,0.5,0.8,0.5h1.1l-0.9,1.4c-0.3,0.4-0.2,1,0.3,1.3c0.2,0.1,0.3,0.2,0.5,0.2
		c0.3,0,0.6-0.2,0.8-0.4l1.9-2.9c0.2-0.3,0.2-0.7,0-1s-0.5-0.5-0.8-0.5h-1.1l0.6-1h4.8c2.9,0,5.3-2.4,5.3-5.3
		C33.7,18.1,32.8,16.6,31.5,15.7z M25.5,7.9c2.6,0,4.8,2.2,4.8,4.8c0,0.7-0.2,1.5-0.5,2.1c-0.5-0.1-0.9-0.2-1.4-0.2
		c-0.2,0-0.5,0-0.8,0.1c-0.8-2.6-2.8-4.7-5.4-5.5C23.1,8.4,24.2,7.9,25.5,7.9z M28.4,23.2H11.1c-1.9,0-3.4-1.5-3.4-3.4
		s1.5-3.4,3.4-3.4c0.1,0,0.3,0,0.6,0.1v0.9c0,0.5,0.4,1,1,1c0.5,0,1-0.4,1-1v-1.5c0.5-3,3.1-5.2,6.1-5.2c3.1,0,5.6,2.2,6.1,5.2v1.5
		c0,0.5,0.4,1,1,1c0.5,0,1-0.4,1-1v-0.9c0.2,0,0.4-0.1,0.6-0.1c1.9,0,3.4,1.5,3.4,3.4S30.2,23.2,28.4,23.2z M32.3,6.9
		c0.2,0,0.5-0.1,0.7-0.3l1.4-1.4c0.4-0.4,0.4-1,0-1.4s-1-0.4-1.4,0l-1.4,1.4c-0.4,0.4-0.4,1,0,1.4C31.8,6.8,32,6.9,32.3,6.9z
		 M18,6.6c0.2,0.2,0.4,0.3,0.7,0.3c0.2,0,0.5-0.1,0.7-0.3c0.4-0.4,0.4-1,0-1.4L18,3.8c-0.4-0.4-1-0.4-1.4,0s-0.4,1,0,1.4L18,6.6z
		 M37,11.7H35c-0.5,0-1,0.4-1,1s0.4,1,1,1H37c0.5,0,1-0.4,1-1S37.5,11.7,37,11.7z"/>
</g>
</svg>
