<?xml version="1.0" encoding="utf-8"?>
<!-- Generator: Adobe Illustrator 25.2.3, SVG Export Plug-In . SVG Version: 6.00 Build 0)  -->
<svg version="1.1" id="Layer_1" xmlns="http://www.w3.org/2000/svg" xmlns:xlink="http://www.w3.org/1999/xlink" x="0px" y="0px"
	 viewBox="0 0 43.8 34.1" style="enable-background:new 0 0 43.8 34.1;" xml:space="preserve">
<style type="text/css">
	.st0{display:none;}
	.st1{fill:#FFFFFF;}
</style>
<g id="Base" class="st0">
</g>
<g id="Dibujo">
	<g>
		<g>
			<path class="st1" d="M33.2,13c1.6-1.4,2.5-3.4,2.5-5.6c0-0.6-0.5-1.1-1.1-1.1c-2.9,0-5.3-2.4-5.3-5.3c0.1-0.5-0.4-1-1-1
				c-3.8,0-6.9,2.8-7.4,6.5c-3.6,0.4-6.7,2.9-7.7,6.4c-0.3-0.1-0.6-0.1-0.9-0.1c-3.2,0-5.9,2.6-5.9,5.9s2.6,5.9,5.9,5.9h6l-2.1,3.1
				C16,28,16,28.4,16.1,28.8c0.2,0.3,0.5,0.6,0.9,0.6h1.2l-2.1,3.1c-0.3,0.5-0.2,1.2,0.3,1.5c0.2,0.1,0.4,0.2,0.6,0.2
				c0.3,0,0.7-0.2,0.9-0.5l3.2-4.8c0.2-0.3,0.2-0.7,0.1-1.1c-0.2-0.3-0.5-0.6-0.9-0.6h-1.2l1.8-2.7h2.8l-1,1.5
				c-0.2,0.3-0.2,0.7-0.1,1.1c0.2,0.3,0.5,0.6,0.9,0.6h1.2l-1,1.5c-0.3,0.5-0.2,1.2,0.3,1.5c0.2,0.1,0.4,0.2,0.6,0.2
				c0.3,0,0.7-0.2,0.9-0.5l2.1-3.2c0.2-0.3,0.2-0.7,0.1-1.1c-0.2-0.3-0.5-0.6-0.9-0.6h-1.2l0.7-1.1h5.3c3.2,0,5.9-2.6,5.9-5.9
				C37.4,16,35.6,13.8,33.2,13z M27.3,2.2c0.5,3.2,3,5.7,6.2,6.2c-0.3,1.7-1.5,3.2-3.1,3.9c-1.1-3.2-4-5.4-7.3-5.9
				C23.5,4.3,25.2,2.6,27.3,2.2z M31.5,22.4H12.3c-2.1,0-3.7-1.7-3.7-3.7s1.7-3.7,3.7-3.7c0.1,0,0.4,0,0.6,0.1v1
				c0,0.6,0.5,1.1,1.1,1.1s1.1-0.5,1.1-1.1v-1.7c0.6-3.3,3.4-5.7,6.8-5.7c3.4,0,6.3,2.4,6.8,5.7V16c0,0.6,0.5,1.1,1.1,1.1
				s1.1-0.5,1.1-1.1v-1c0.3-0.1,0.5-0.1,0.6-0.1c2.1,0,3.7,1.7,3.7,3.7S33.5,22.4,31.5,22.4z"/>
		</g>
	</g>
</g>
</svg>
