<?xml version="1.0" encoding="utf-8"?>
<!-- Generator: Adobe Illustrator 25.2.3, SVG Export Plug-In . SVG Version: 6.00 Build 0)  -->
<svg version="1.1" id="Layer_1" xmlns="http://www.w3.org/2000/svg" xmlns:xlink="http://www.w3.org/1999/xlink" x="0px" y="0px"
	 viewBox="0 0 43.8 34.1" style="enable-background:new 0 0 43.8 34.1;" xml:space="preserve">
<style type="text/css">
	.st0{display:none;}
	.st1{fill:#FFFFFF;}
</style>
<g id="Base" class="st0">
</g>
<g id="Dibujo">
	<g>
		<path class="st1" d="M32.3,16.6c0.5-1,0.7-2.1,0.7-3.2c0-4-3.2-7.2-7.2-7.2c-2.4,0-4.6,1.2-5.9,3.1c-0.1,0-0.2,0-0.3,0
			c-4,0-7.3,2.6-8.4,6.3c-0.3-0.1-0.6-0.1-0.9-0.1c-3.1,0-5.7,2.5-5.7,5.7s2.5,5.7,5.7,5.7c0.6,0,1-0.5,1-1s-0.5-1-1-1
			c-2,0-3.6-1.6-3.6-3.6s1.6-3.6,3.6-3.6c0.1,0,0.4,0,0.6,0.1v0.9c0,0.6,0.5,1,1,1s1-0.5,1-1V17c0.6-3.2,3.3-5.6,6.6-5.6
			s6.1,2.3,6.6,5.6v1.7c0,0.6,0.5,1,1,1c0.6,0,1-0.5,1-1v-0.9c0.2,0,0.5-0.1,0.6-0.1c2,0,3.6,1.6,3.6,3.6s-1.4,3.5-3.4,3.5
			c-0.6,0-1,0.5-1,1s0.5,1,1,1c3.1,0,5.7-2.5,5.7-5.7C34.6,19.3,33.7,17.7,32.3,16.6z M28,15.6c-0.8-2.8-3-5-5.8-5.9
			c0.9-0.9,2.2-1.4,3.6-1.4c2.8,0,5.2,2.3,5.2,5.2c0,0.8-0.2,1.6-0.5,2.3c-0.5-0.1-1-0.2-1.5-0.2C28.6,15.5,28.3,15.5,28,15.6z"/>
		<path class="st1" d="M25.8,4.1c0.6,0,1-0.5,1-1V1c0-0.6-0.5-1-1-1c-0.6,0-1,0.5-1,1v2.1C24.7,3.7,25.2,4.1,25.8,4.1z"/>
		<path class="st1" d="M38.2,12.4h-2.1c-0.6,0-1,0.5-1,1c0,0.6,0.5,1,1,1h2.1c0.6,0,1-0.5,1-1S38.7,12.4,38.2,12.4z"/>
		<path class="st1" d="M33.1,7.2c0.3,0,0.5-0.1,0.7-0.3l1.5-1.5c0.4-0.4,0.4-1.1,0-1.5s-1.1-0.4-1.5,0l-1.5,1.5
			c-0.4,0.4-0.4,1.1,0,1.5C32.6,7.1,32.8,7.2,33.1,7.2z"/>
		<path class="st1" d="M17.7,6.9c0.2,0.2,0.5,0.3,0.7,0.3s0.5-0.1,0.7-0.3c0.4-0.4,0.4-1.1,0-1.5l-1.5-1.5c-0.4-0.4-1.1-0.4-1.5,0
			c-0.2,0.4-0.2,1.1,0.2,1.5L17.7,6.9z"/>
		<path class="st1" d="M18.4,27.1c-0.3-0.5-0.9-0.7-1.4-0.4c-0.5,0.3-0.7,0.9-0.4,1.4l0.5,0.9c0.2,0.3,0.5,0.5,0.9,0.5
			c0.2,0,0.4,0,0.5-0.1c0.5-0.3,0.7-0.9,0.4-1.4L18.4,27.1z"/>
		<path class="st1" d="M15.8,22.6c-0.3-0.5-0.9-0.7-1.4-0.4c-0.5,0.3-0.7,0.9-0.4,1.4l0.5,0.9c0.2,0.3,0.5,0.5,0.9,0.5
			c0.2,0,0.4,0,0.5-0.1c0.5-0.3,0.7-0.9,0.4-1.4L15.8,22.6z"/>
		<path class="st1" d="M17,24.9c0.2,0.1,0.3,0.1,0.5,0.1c0.4,0,0.7-0.2,0.9-0.5l0.5-0.9c0.3-0.5,0.1-1.1-0.4-1.4s-1.1-0.1-1.4,0.4
			l-0.5,0.9C16.3,24,16.5,24.7,17,24.9z"/>
		<path class="st1" d="M16,26.7c-0.5-0.3-1.1-0.1-1.4,0.4L14,28c-0.3,0.5-0.1,1.1,0.4,1.4c0.2,0.1,0.3,0.1,0.5,0.1
			c0.4,0,0.7-0.2,0.9-0.5l0.5-0.9C16.6,27.6,16.5,27,16,26.7z"/>
		<path class="st1" d="M15.4,25.8c0-0.6-0.5-1-1-1h-1c-0.6,0-1,0.5-1,1s0.5,1,1,1h1C15,26.9,15.4,26.4,15.4,25.8z"/>
		<path class="st1" d="M20.6,25.8c0-0.6-0.5-1-1-1h-1c-0.6,0-1,0.5-1,1s0.5,1,1,1h1C20.2,26.9,20.6,26.4,20.6,25.8z"/>
		<path class="st1" d="M26.2,31.7c-0.3-0.5-0.9-0.7-1.4-0.4c-0.5,0.3-0.7,0.9-0.4,1.4l0.5,0.9c0.2,0.3,0.5,0.5,0.9,0.5
			c0.2,0,0.4,0,0.5-0.1c0.5-0.3,0.7-0.9,0.4-1.4L26.2,31.7z"/>
		<path class="st1" d="M23.6,27.2c-0.3-0.5-0.9-0.7-1.4-0.4c-0.5,0.3-0.7,0.9-0.4,1.4l0.5,0.9c0.2,0.3,0.5,0.5,0.9,0.5
			c0.2,0,0.4,0,0.5-0.1c0.5-0.3,0.7-0.9,0.4-1.4L23.6,27.2z"/>
		<path class="st1" d="M24.7,29.5c0.2,0.1,0.3,0.1,0.5,0.1c0.4,0,0.7-0.2,0.9-0.5l0.5-0.9c0.3-0.5,0.1-1.1-0.4-1.4s-1.1-0.1-1.4,0.4
			l-0.5,0.9C24.1,28.6,24.3,29.2,24.7,29.5z"/>
		<path class="st1" d="M23.7,31.3c-0.5-0.3-1.1-0.1-1.4,0.4l-0.5,0.9c-0.3,0.5-0.1,1.1,0.4,1.4c0.2,0.1,0.3,0.1,0.5,0.1
			c0.4,0,0.7-0.2,0.9-0.5l0.5-0.9C24.4,32.2,24.2,31.6,23.7,31.3z"/>
		<path class="st1" d="M23.2,30.4c0-0.6-0.5-1-1-1h-1c-0.6,0-1,0.5-1,1c0,0.6,0.5,1,1,1h1C22.7,31.4,23.2,31,23.2,30.4z"/>
		<path class="st1" d="M27.3,29.3h-1c-0.6,0-1,0.5-1,1c0,0.6,0.5,1,1,1h1c0.6,0,1-0.5,1-1C28.4,29.8,27.9,29.3,27.3,29.3z"/>
	</g>
</g>
</svg>
