<?xml version="1.0" encoding="utf-8"?>
<!-- Generator: Adobe Illustrator 25.2.3, SVG Export Plug-In . SVG Version: 6.00 Build 0)  -->
<svg version="1.1" id="Layer_1" xmlns="http://www.w3.org/2000/svg" xmlns:xlink="http://www.w3.org/1999/xlink" x="0px" y="0px"
	 viewBox="0 0 43.8 34.1" style="enable-background:new 0 0 43.8 34.1;" xml:space="preserve">
<style type="text/css">
	.st0{display:none;}
	.st1{fill:#FFFFFF;}
</style>
<g id="Base" class="st0">
</g>
<g id="Dibujo">
	<g>
		<path class="st1" d="M7.8,16.4h20.1c0.7,0,1.4-0.6,1.4-1.4s-0.6-1.4-1.4-1.4H7.8c-0.7,0-1.4,0.6-1.4,1.4S7,16.4,7.8,16.4z"/>
		<path class="st1" d="M3.8,20.4h16.1c0.7,0,1.4-0.6,1.4-1.4c0-0.7-0.6-1.4-1.4-1.4H3.8c-0.7,0-1.4,0.6-1.4,1.4
			C2.4,19.7,3,20.4,3.8,20.4z"/>
		<path class="st1" d="M43.4,23.1c0-0.7-0.6-1.4-1.4-1.4H1.8c-0.7,0-1.4,0.6-1.4,1.4c0,0.7,0.6,1.4,1.4,1.4h40.3
			C42.8,24.5,43.4,23.8,43.4,23.1z"/>
		<path class="st1" d="M42.1,25.8H3.8c-0.7,0-1.4,0.6-1.4,1.4c0,0.7,0.6,1.4,1.4,1.4h38.3c0.7,0,1.4-0.6,1.4-1.4
			C43.4,26.4,42.8,25.8,42.1,25.8z"/>
		<path class="st1" d="M15.9,29.9h-8c-0.7,0-1.4,0.6-1.4,1.4s0.6,1.4,1.4,1.4h8c0.7,0,1.4-0.6,1.4-1.4
			C17.2,30.4,16.6,29.9,15.9,29.9z"/>
		<path class="st1" d="M38,29.9H19.9c-0.7,0-1.4,0.6-1.4,1.4s0.6,1.4,1.4,1.4H38c0.7,0,1.4-0.6,1.4-1.4C39.4,30.4,38.8,29.9,38,29.9
			z"/>
		<path class="st1" d="M15.9,12.4h8c0.7,0,1.4-0.6,1.4-1.4c0-3.3,2.4-6,5.5-6.6c0.3,2,1.2,3.7,2.6,5.2c1.5,1.5,3.3,2.4,5.2,2.6
			c-0.5,3.1-3.3,5.5-6.6,5.5h-8c-0.7,0-1.4,0.6-1.4,1.4c0,0.7,0.6,1.4,1.4,1.4h8c5.2,0,9.4-4.2,9.4-9.4c0-0.4-0.2-0.7-0.4-0.9
			c-0.2-0.2-0.6-0.4-0.9-0.4l0,0c-1.8,0-3.5-0.7-4.7-2C34,6.4,33.3,4.7,33.3,3c0-0.7-0.6-1.4-1.4-1.4c-4.7,0-8.7,3.6-9.3,8h-6.8
			c-0.7,0-1.4,0.6-1.4,1.4S15.2,12.4,15.9,12.4z"/>
	</g>
</g>
</svg>
