<?xml version="1.0" encoding="utf-8"?>
<!-- Generator: Adobe Illustrator 25.2.3, SVG Export Plug-In . SVG Version: 6.00 Build 0)  -->
<svg version="1.1" id="Layer_1" xmlns="http://www.w3.org/2000/svg" xmlns:xlink="http://www.w3.org/1999/xlink" x="0px" y="0px"
	 viewBox="0 0 43.8 34.1" style="enable-background:new 0 0 43.8 34.1;" xml:space="preserve">
<style type="text/css">
	.st0{display:none;}
	.st1{fill:#FFFFFF;}
</style>
<g id="Base" class="st0">
</g>
<g id="Dibujo">
	<path class="st1" d="M36.5,14.6c-6.7,0-12.1-5.4-12.1-12.1C24.3,1.1,23.2,0,21.9,0c-9.4,0-17,7.6-17,17s7.6,17,17,17s17-7.6,17-17
		C38.9,15.7,37.8,14.6,36.5,14.6z M21.9,29.2c-6.7,0-12.1-5.4-12.1-12.1c0-5.9,4.3-10.9,9.9-11.9c1.1,7.3,6.9,13,14.2,14.2
		C32.8,24.9,27.8,29.2,21.9,29.2z"/>
</g>
</svg>
