<?xml version="1.0" encoding="utf-8"?>
<!-- Generator: Adobe Illustrator 25.2.3, SVG Export Plug-In . SVG Version: 6.00 Build 0)  -->
<svg version="1.1" id="Layer_1" xmlns="http://www.w3.org/2000/svg" xmlns:xlink="http://www.w3.org/1999/xlink" x="0px" y="0px"
	 viewBox="0 0 43.8 34.1" style="enable-background:new 0 0 43.8 34.1;" xml:space="preserve">
<style type="text/css">
	.st0{display:none;}
	.st1{fill:#FFFFFF;}
</style>
<g id="Base" class="st0">
</g>
<g id="Dibujo">
	<g>
		<path class="st1" d="M35.5,13.2c-0.4,0-0.8,0.1-1.3,0.2C32.6,8,27.7,4.2,21.9,4.2S11.2,7.9,9.6,13.4c-0.5-0.1-0.9-0.2-1.3-0.2
			c-4.6,0-8.3,3.7-8.3,8.3s3.7,8.3,8.3,8.3h27.2c4.6,0,8.3-3.7,8.3-8.3S40.1,13.2,35.5,13.2z M35.5,26.8H8.3c-2.9,0-5.3-2.3-5.3-5.3
			s2.3-5.3,5.3-5.3c0.2,0,0.5,0.1,0.9,0.2v1.4c0,0.8,0.7,1.5,1.5,1.5s1.5-0.7,1.5-1.5v-2.4c0.8-4.7,4.8-8.2,9.7-8.2s8.8,3.4,9.7,8.2
			v2.4c0,0.8,0.7,1.5,1.5,1.5s1.5-0.7,1.5-1.5v-1.4c0.4-0.1,0.7-0.2,0.9-0.2c2.9,0,5.3,2.3,5.3,5.3S38.4,26.8,35.5,26.8z"/>
	</g>
</g>
</svg>
