<?xml version="1.0" encoding="utf-8"?>
<!-- Generator: Adobe Illustrator 25.2.3, SVG Export Plug-In . SVG Version: 6.00 Build 0)  -->
<svg version="1.1" id="Layer_1" xmlns="http://www.w3.org/2000/svg" xmlns:xlink="http://www.w3.org/1999/xlink" x="0px" y="0px"
	 viewBox="0 0 43.8 34.1" style="enable-background:new 0 0 43.8 34.1;" xml:space="preserve">
<style type="text/css">
	.st0{fill:#FFFFFF;}
</style>
<g id="Dibujo">
	<g>
		<path class="st0" d="M35.4,13c-0.4,0-0.8,0.1-1.3,0.2c-1.6-5.4-6.6-9.3-12.5-9.3S10.7,7.6,9.1,13.1C8.7,13.1,8.2,13,7.8,13
			c-4.7,0-8.4,3.7-8.4,8.4s3.7,8.4,8.4,8.4h27.5c4.7,0,8.4-3.7,8.4-8.4S40,13,35.4,13z M35.4,26.8H7.8c-3,0-5.4-2.4-5.4-5.4
			s2.4-5.4,5.4-5.4c0.2,0,0.5,0.1,0.9,0.2v1.4c0,0.8,0.7,1.5,1.5,1.5s1.5-0.7,1.5-1.5v-2.4c0.8-4.7,4.9-8.3,9.8-8.3s8.9,3.4,9.8,8.3
			v2.4c0,0.8,0.7,1.5,1.5,1.5c0.8,0,1.5-0.7,1.5-1.5v-1.4c0.4-0.1,0.7-0.2,0.9-0.2c3,0,5.4,2.4,5.4,5.4S38.4,26.8,35.4,26.8z"/>
	</g>
</g>
</svg>
