<?xml version="1.0" encoding="utf-8"?>
<!-- Generator: Adobe Illustrator 25.2.3, SVG Export Plug-In . SVG Version: 6.00 Build 0)  -->
<svg version="1.1" id="Layer_1" xmlns="http://www.w3.org/2000/svg" xmlns:xlink="http://www.w3.org/1999/xlink" x="0px" y="0px"
	 viewBox="0 0 43.8 34.1" style="enable-background:new 0 0 43.8 34.1;" xml:space="preserve">
<style type="text/css">
	.st0{fill:#EDEDED;}
	.st1{display:none;}
	.st2{fill:#FFFFFF;}
</style>
<path class="st0" d="M18.3,7.1c0,0,3.1-3.3,10.4-1.3s6.9,7.2,6.9,7.2s7-1.1,8.1,6.9c1.1,8-8.7,7-8.7,7l0.4-2.9l0.7-2.3l-0.2-2.8
	l-3.3-2.8l-2.5-0.2l-1.8,0.6L27,14.3c0,0-1.4-1.9-1.6-2.1c-0.2-0.2-3.4-2.5-3.4-2.5L18.8,9L18.3,7.1z"/>
<g id="Base" class="st1">
</g>
<g id="Dibujo">
	<g>
		<path class="st2" d="M30.1,14.8c-0.3,0-0.7,0.1-1.1,0.2c-1.4-4.6-5.5-7.8-10.5-7.8s-9.1,3.2-10.4,7.8c-0.4-0.1-0.8-0.2-1.1-0.2
			c-3.9,0-7,3.1-7,7s3.1,7,7,7h23.1c3.9,0,7-3.1,7-7S34,14.8,30.1,14.8z M30.1,26.3H7c-2.5,0-4.5-2-4.5-4.5s2-4.5,4.5-4.5
			c0.2,0,0.5,0.1,0.8,0.2v1.1c0,0.7,0.6,1.3,1.3,1.3c0.7,0,1.3-0.6,1.3-1.3v-2.1c0.7-4,4.1-6.9,8.2-6.9s7.5,2.9,8.2,6.9v2.1
			c0,0.7,0.6,1.3,1.3,1.3c0.7,0,1.3-0.6,1.3-1.3v-1.1c0.3-0.1,0.6-0.2,0.8-0.2c2.5,0,4.5,2,4.5,4.5S32.6,26.3,30.1,26.3z"/>
	</g>
</g>
</svg>
