<?xml version="1.0" encoding="utf-8"?>
<!-- Generator: Adobe Illustrator 25.2.3, SVG Export Plug-In . SVG Version: 6.00 Build 0)  -->
<svg version="1.1" id="Layer_1" xmlns="http://www.w3.org/2000/svg" xmlns:xlink="http://www.w3.org/1999/xlink" x="0px" y="0px"
	 viewBox="0 0 43.8 34.1" style="enable-background:new 0 0 43.8 34.1;" xml:space="preserve">
<style type="text/css">
	.st0{display:none;}
	.st1{fill:#FFFFFF;}
</style>
<g id="Base" class="st0">
</g>
<g id="Dibujo">
	<g>
		<path class="st1" d="M31,14.4c0.4-0.9,0.6-1.8,0.6-2.8c0-3.5-2.8-6.3-6.3-6.3c-2.1,0-4,1-5.2,2.7c-0.1,0-0.2,0-0.2,0
			c-3.4,0-6.4,2.3-7.3,5.5c-0.3,0-0.5-0.1-0.8-0.1c-2.7,0-4.9,2.2-4.9,4.9s2.2,4.9,4.9,4.9h3.1v7.2c0,0.5,0.4,0.9,0.9,0.9
			s0.9-0.4,0.9-0.9v-7.2H23v7.2c0,0.5,0.4,0.9,0.9,0.9s0.9-0.4,0.9-0.9v-7.2h3.1c2.7,0,4.9-2.2,4.9-4.9C33,16.8,32.2,15.3,31,14.4z
			 M25.3,7.1c2.5,0,4.5,2,4.5,4.5c0,0.7-0.2,1.4-0.5,2c-0.4-0.1-0.9-0.2-1.3-0.2c-0.2,0-0.5,0-0.8,0.1c-0.7-2.5-2.6-4.4-5-5.1
			C23,7.6,24.2,7.1,25.3,7.1z M28,21.5H11.8c-1.7,0-3.1-1.4-3.1-3.1s1.4-3.1,3.1-3.1c0.1,0,0.3,0,0.5,0.1v0.8c0,0.5,0.4,0.9,0.9,0.9
			s0.9-0.4,0.9-0.9v-1.4C14.7,12,17.1,10,20,10c2.9,0,5.3,2,5.8,4.8v1.4c0,0.5,0.4,0.9,0.9,0.9s0.9-0.4,0.9-0.9v-0.8
			c0.2,0,0.4-0.1,0.5-0.1c1.7,0,3.1,1.4,3.1,3.1S29.8,21.5,28,21.5z"/>
		<path class="st1" d="M25.3,3.6c0.5,0,0.9-0.4,0.9-0.9V0.9c0-0.5-0.4-0.9-0.9-0.9s-0.9,0.4-0.9,0.9v1.8C24.5,3.1,24.8,3.6,25.3,3.6
			z"/>
		<path class="st1" d="M36.1,10.7h-1.8c-0.5,0-0.9,0.4-0.9,0.9s0.4,0.9,0.9,0.9h1.8c0.5,0,0.9-0.4,0.9-0.9
			C36.9,11.1,36.6,10.7,36.1,10.7z"/>
		<path class="st1" d="M31.7,6.2c0.2,0,0.5-0.1,0.6-0.3l1.3-1.3c0.4-0.4,0.4-0.9,0-1.3s-0.9-0.4-1.3,0L31,4.6
			c-0.4,0.4-0.4,0.9,0,1.3C31.2,6.1,31.5,6.2,31.7,6.2z"/>
		<path class="st1" d="M18.3,5.9c0.2,0.2,0.4,0.3,0.6,0.3s0.5-0.1,0.6-0.3c0.4-0.4,0.4-0.9,0-1.3l-1.3-1.3c-0.4-0.4-0.9-0.4-1.3,0
			c-0.4,0.4-0.4,0.9,0,1.3L18.3,5.9z"/>
		<path class="st1" d="M20,24.2c-0.5,0-0.9,0.4-0.9,0.9v8.1c0,0.5,0.4,0.9,0.9,0.9s0.9-0.4,0.9-0.9v-8.1
			C20.8,24.6,20.5,24.2,20,24.2z"/>
	</g>
</g>
</svg>
