<?xml version="1.0" encoding="utf-8"?>
<!-- Generator: Adobe Illustrator 25.2.3, SVG Export Plug-In . SVG Version: 6.00 Build 0)  -->
<svg version="1.1" id="Layer_1" xmlns="http://www.w3.org/2000/svg" xmlns:xlink="http://www.w3.org/1999/xlink" x="0px" y="0px"
	 viewBox="0 0 100 53.6" style="enable-background:new 0 0 100 53.6;" xml:space="preserve">
<style type="text/css">
	.st0{fill:#333333;}
	.st1{fill:#FFFFFF;}
	.st2{fill:#F48F4A;}
</style>
<g>
	<circle class="st0" cx="44.7" cy="18.4" r="8"/>
	<circle class="st0" cx="54.8" cy="8.4" r="8.4"/>
	<circle class="st0" cx="68.4" cy="12.2" r="5.2"/>
	<circle class="st0" cx="75.3" cy="21.1" r="5.2"/>
	<polygon class="st0" points="43.9,26.4 75.3,26.4 75.3,15.9 70,15.9 63.8,9.7 62.8,11 46.8,12.2 	"/>
</g>
<g>
	<circle class="st1" cx="29.8" cy="29.8" r="10.3"/>
	<circle class="st1" cx="42.9" cy="16.7" r="10.9"/>
	<circle class="st1" cx="60.6" cy="21.6" r="6.8"/>
	<circle class="st1" cx="69.5" cy="33.2" r="6.8"/>
	<polygon class="st1" points="28.9,40 69.5,40 69.5,26.4 62.7,26.4 54.6,18.5 53.3,20.1 32.6,21.6 	"/>
</g>
<polygon class="st2" points="40.4,30.1 34.5,42.7 39,42.7 34.5,53.6 47.7,39 43.2,39 47.7,30.1 "/>
</svg>
