<?xml version="1.0" encoding="utf-8"?>
<!-- Generator: Adobe Illustrator 25.2.3, SVG Export Plug-In . SVG Version: 6.00 Build 0)  -->
<svg version="1.1" id="Layer_1" xmlns="http://www.w3.org/2000/svg" xmlns:xlink="http://www.w3.org/1999/xlink" x="0px" y="0px"
	 viewBox="0 0 43.8 34.1" style="enable-background:new 0 0 43.8 34.1;" xml:space="preserve">
<style type="text/css">
	.st0{display:none;}
	.st1{fill:#FFFFFF;}
</style>
<g id="Base" class="st0">
</g>
<g id="Dibujo">
	<g>
		<path class="st1" d="M33.7,14c1.6-1.5,2.7-3.6,2.7-5.9c0-0.6-0.5-1.1-1.1-1.1c-3.1,0-5.6-2.5-5.6-5.6c0-0.6-0.5-1.1-1.1-1.1
			c-4,0-7.3,3-7.8,6.8c-3.8,0.4-7,3.1-8.1,6.8c-0.3-0.1-0.7-0.1-0.9-0.1c-3.4,0-6.2,2.8-6.2,6.2s2.8,6.2,6.2,6.2
			c0.6,0,1.1-0.5,1.1-1.1S12.4,24,11.8,24c-2.2,0-3.9-1.8-3.9-3.9s1.8-3.9,3.9-3.9c0.2,0,0.4,0,0.7,0.1v1c0,0.6,0.5,1.1,1.1,1.1
			s1.1-0.5,1.1-1.1v-1.8c0.6-3.5,3.6-6.1,7.2-6.1c3.6,0,6.6,2.5,7.2,6.1V17c0,0.6,0.5,1.1,1.1,1.1s1.1-0.5,1.1-1.1v-1
			c0.3-0.1,0.5-0.1,0.7-0.1c2.2,0,3.9,1.8,3.9,3.9s-1.8,3.9-3.9,3.9c-0.6,0-1.1,0.5-1.1,1.1s0.5,1.1,1.1,1.1c3.4,0,6.2-2.8,6.2-6.2
			C38.1,17.1,36.2,14.7,33.7,14z M23,7c0.4-2.3,2.2-4.1,4.5-4.5C28,5.9,30.7,8.5,34,9c-0.3,1.8-1.6,3.4-3.3,4.1
			C29.6,9.9,26.6,7.5,23,7z"/>
		<path class="st1" d="M20.5,26.3c-0.3-0.5-1-0.7-1.5-0.4c-0.5,0.3-0.7,1-0.4,1.5l0.6,1c0.2,0.4,0.6,0.6,1,0.6c0.2,0,0.4,0,0.6-0.2
			c0.5-0.3,0.7-1,0.4-1.5L20.5,26.3z"/>
		<path class="st1" d="M17.7,21.4c-0.3-0.5-1-0.7-1.5-0.4c-0.5,0.3-0.7,1-0.4,1.5l0.6,1c0.2,0.4,0.6,0.6,1,0.6c0.2,0,0.4,0,0.6-0.1
			c0.5-0.3,0.7-1,0.4-1.5L17.7,21.4z"/>
		<path class="st1" d="M19,23.9c0.2,0.1,0.4,0.1,0.6,0.1c0.4,0,0.8-0.2,1-0.6l0.6-1c0.3-0.5,0.1-1.2-0.4-1.5s-1.2-0.1-1.5,0.4
			l-0.6,1C18.3,22.9,18.5,23.6,19,23.9z"/>
		<path class="st1" d="M17.9,25.9c-0.5-0.3-1.2-0.1-1.5,0.4l-0.6,1c-0.3,0.5-0.1,1.2,0.4,1.5c0.2,0.1,0.4,0.2,0.6,0.2
			c0.4,0,0.8-0.2,1-0.6l0.6-1C18.6,26.9,18.4,26.2,17.9,25.9z"/>
		<path class="st1" d="M17.3,24.9c0-0.6-0.5-1.1-1.1-1.1h-1.1c-0.6,0-1.1,0.5-1.1,1.1s0.5,1.1,1.1,1.1h1.1
			C16.8,26,17.3,25.5,17.3,24.9z"/>
		<path class="st1" d="M22.9,24.9c0-0.6-0.5-1.1-1.1-1.1h-1.1c-0.6,0-1.1,0.5-1.1,1.1s0.5,1.1,1.1,1.1h1.1
			C22.4,26,22.9,25.5,22.9,24.9z"/>
		<path class="st1" d="M28.9,31.2c-0.3-0.5-1-0.7-1.5-0.4c-0.5,0.3-0.7,1-0.4,1.5l0.6,1c0.2,0.4,0.6,0.6,1,0.6c0.2,0,0.4,0,0.6-0.2
			c0.5-0.3,0.7-1,0.4-1.5L28.9,31.2z"/>
		<path class="st1" d="M26.1,26.4c-0.3-0.5-1-0.7-1.5-0.4c-0.5,0.3-0.7,1-0.4,1.5l0.6,1c0.2,0.4,0.6,0.6,1,0.6c0.2,0,0.4,0,0.6-0.1
			c0.5-0.3,0.7-1,0.4-1.5L26.1,26.4z"/>
		<path class="st1" d="M27.4,28.9C27.6,29,27.8,29,28,29c0.4,0,0.8-0.2,1-0.6l0.6-1c0.3-0.5,0.1-1.2-0.4-1.5s-1.2-0.1-1.5,0.4
			l-0.6,1C26.7,27.9,26.9,28.6,27.4,28.9z"/>
		<path class="st1" d="M26.3,30.8c-0.5-0.3-1.2-0.1-1.5,0.4l-0.6,1c-0.3,0.5-0.1,1.2,0.4,1.5c0.2,0.1,0.4,0.2,0.6,0.2
			c0.4,0,0.8-0.2,1-0.6l0.6-1C27,31.8,26.8,31.1,26.3,30.8z"/>
		<path class="st1" d="M25.7,29.9c0-0.6-0.5-1.1-1.1-1.1h-1.1c-0.6,0-1.1,0.5-1.1,1.1s0.5,1.1,1.1,1.1h1.1
			C25.2,31,25.7,30.5,25.7,29.9z"/>
		<path class="st1" d="M30.2,28.7h-1.1c-0.6,0-1.1,0.5-1.1,1.1s0.5,1.1,1.1,1.1h1.1c0.6,0,1.1-0.5,1.1-1.1S30.8,28.7,30.2,28.7z"/>
	</g>
</g>
</svg>
