<?xml version="1.0" encoding="utf-8"?>
<!-- Generator: Adobe Illustrator 25.2.3, SVG Export Plug-In . SVG Version: 6.00 Build 0)  -->
<svg version="1.1" id="Layer_1" xmlns="http://www.w3.org/2000/svg" xmlns:xlink="http://www.w3.org/1999/xlink" x="0px" y="0px"
	 viewBox="0 0 43.8 34.1" style="enable-background:new 0 0 43.8 34.1;" xml:space="preserve">
<style type="text/css">
	.st0{display:none;}
	.st1{fill:#FFFFFF;}
</style>
<g id="Base" class="st0">
</g>
<g id="Dibujo">
	<g>
		<path class="st1" d="M28,6.7c0.6,0,1.1-0.5,1.1-1.1V3.2c0-0.6-0.5-1.1-1.1-1.1s-1.1,0.5-1.1,1.1v2.3C26.8,6.1,27.3,6.7,28,6.7z"/>
		<path class="st1" d="M41.8,15.9h-2.3c-0.6,0-1.1,0.5-1.1,1.1s0.5,1.1,1.1,1.1h2.3c0.6,0,1.1-0.5,1.1-1.1S42.4,15.9,41.8,15.9z"/>
		<path class="st1" d="M36.1,10c0.3,0,0.6-0.1,0.8-0.4l1.6-1.6c0.4-0.4,0.4-1.1,0-1.6c-0.4-0.4-1.1-0.4-1.6,0l-1.6,1.6
			c-0.4,0.4-0.4,1.1,0,1.6C35.5,9.9,35.8,10,36.1,10z"/>
		<path class="st1" d="M19,9.7c0.3,0.3,0.5,0.4,0.8,0.4c0.3,0,0.6-0.1,0.8-0.4c0.4-0.4,0.4-1.1,0-1.6L19,6.5c-0.4-0.4-1.1-0.4-1.6,0
			c-0.4,0.4-0.4,1.1,0,1.6L19,9.7z"/>
		<path class="st1" d="M7.2,18.2h17.3c0.6,0,1.1-0.5,1.1-1.1s-0.5-1.1-1.1-1.1H7.2c-0.6,0-1.1,0.5-1.1,1.1S6.5,18.2,7.2,18.2z"/>
		<path class="st1" d="M3.8,21.7h13.9c0.6,0,1.1-0.5,1.1-1.1c0-0.6-0.5-1.1-1.1-1.1H3.8c-0.6,0-1.1,0.5-1.1,1.1
			C2.6,21.2,3.1,21.7,3.8,21.7z"/>
		<path class="st1" d="M36.6,22.8H2c-0.6,0-1.1,0.5-1.1,1.1c0,0.6,0.5,1.1,1.1,1.1h34.5c0.6,0,1.1-0.5,1.1-1.1
			C37.7,23.4,37.3,22.8,36.6,22.8z"/>
		<path class="st1" d="M36.6,26.3H3.8c-0.6,0-1.1,0.5-1.1,1.1s0.5,1.1,1.1,1.1h32.8c0.6,0,1.1-0.5,1.1-1.1
			C37.7,26.8,37.3,26.3,36.6,26.3z"/>
		<path class="st1" d="M14.1,29.7H7.2c-0.6,0-1.1,0.5-1.1,1.1S6.6,32,7.2,32h6.9c0.6,0,1.1-0.5,1.1-1.1
			C15.3,30.2,14.7,29.7,14.1,29.7z"/>
		<path class="st1" d="M33.1,29.7H17.6c-0.6,0-1.1,0.5-1.1,1.1S17,32,17.6,32h15.5c0.6,0,1.1-0.5,1.1-1.1S33.7,29.7,33.1,29.7z"/>
		<path class="st1" d="M14.1,14.7H22c0.4,0,0.8-0.2,1-0.6c1.1-1.8,2.9-2.9,5-2.9c3.2,0,5.7,2.6,5.7,5.7c0,0.8-0.2,1.6-0.4,2.3H21
			c-0.6,0-1.1,0.5-1.1,1.1s0.5,1.1,1.1,1.1h12.9c0.4,0,0.8-0.2,1-0.5v-0.1c0.7-1.2,1.1-2.6,1.1-4c0-4.4-3.6-8-8-8
			c-2.6,0-5.1,1.3-6.6,3.4H14c-0.6,0-1.1,0.5-1.1,1.1S13.5,14.7,14.1,14.7z"/>
	</g>
</g>
</svg>
