<svg id="Layer_1" data-name="Layer 1" xmlns="http://www.w3.org/2000/svg" viewBox="0 0 244.09 275.57"><path d="M173.8,4.1c-5.2-2.8-8.3,3.7-8.3,3.7L110.4,120.1c-18.5,31.2-22,30-22,30-3.4-1.9.1-11.2.1-11.2L108.6,91c24.6-45.8,6.5-48.2,6.5-48.2-30.3-4.5-40.3,83.4-40.3,83.4-3.7,28.5-23.9,58.4-23.9,58.4C19.5,235.5,9.7,200,9.7,200c-6.8,1.7-5.9,6.1-5.9,6.1,30.7,67,73.8-42.4,73.8-42.4,15.7,32.1,52.6-53.3,52.6-53.3-26,83.7-26.6,146.1-26.6,146.1-.7,11.4,6,13,6,13,9.4,1.9,9.2-8.4,9.2-8.4C126.4,103.4,176,14.3,176,14.3,179.3,6.9,173.8,4.1,173.8,4.1ZM105.7,61.3S98.5,86.4,92,94.1C92,94.1,96.3,70.9,105.7,61.3Z" transform="translate(-3.76 -3.4)"/><path d="M27.3,169.1s20.3,15.3,65.9,28.5c0,0,5.9,1,6,5.1,0,0,.6,7.2-6,6,0,0-50.2-15.3-70.4-32.9,0,0-4.7-3.3-4-5.7C18.8,170.2,19.3,164.6,27.3,169.1Z" transform="translate(-3.76 -3.4)"/><path d="M27,173.1s47.8,54.3,88.7,86.2c0,0,3.8,4.6,1.2,7.8,0,0-6,5.9-10.6.5,0,0-64.1-51.4-87.2-92.2,0,0-1.4-5.5.7-7C19.9,168.3,24,164.4,27,173.1Z" transform="translate(-3.76 -3.4)"/><path d="M203.24,100.74c-2.91-17.7-9.34-34.25-17.76-50-4.39-8.22-16.87-.92-12.49,7.29,17.2,32.21,22.93,69,13.17,104.5a138.24,138.24,0,0,1-54.07,76.26c-7.6,5.28-.38,17.82,7.29,12.49A153.11,153.11,0,0,0,203.24,100.74Z" transform="translate(-3.76 -3.4)"/><path d="M219.15,33.4c-1.8-3.08-6.34-4.57-9.45-2.48a137.81,137.81,0,0,1-14.14,8.28c-3.33,1.69-4.29,6.37-2.48,9.45a7,7,0,0,0,9.45,2.48,133.25,133.25,0,0,0,14.14-8.28A7.06,7.06,0,0,0,219.15,33.4Z" transform="translate(-3.76 -3.4)"/><path d="M237.6,80.13c-1.09-3.39-5.2-5.83-8.7-4.47a135.4,135.4,0,0,1-15.59,5c-3.62.93-5.56,5.3-4.47,8.7a7.05,7.05,0,0,0,8.7,4.47,137.43,137.43,0,0,0,15.59-5A7.07,7.07,0,0,0,237.6,80.13Z" transform="translate(-3.76 -3.4)"/><path d="M247.84,125.72c-.22-3.56-3.6-6.94-7.32-6.49a135.38,135.38,0,0,1-16.35,1c-3.74,0-6.71,3.75-6.49,7.32A7,7,0,0,0,225,134a135.42,135.42,0,0,0,16.36-1A7.08,7.08,0,0,0,247.84,125.72Z" transform="translate(-3.76 -3.4)"/><path d="M240,172.08c.92-3.44-1.22-7.71-4.9-8.46a137.77,137.77,0,0,1-15.83-4.22c-3.54-1.18-7.54,1.44-8.46,4.89a7,7,0,0,0,4.89,8.46A135.27,135.27,0,0,0,231.56,177,7.09,7.09,0,0,0,240,172.08Z" transform="translate(-3.76 -3.4)"/><path d="M226.47,213.45c1.69-3.14.58-7.79-2.82-9.36a135.27,135.27,0,0,1-14.45-7.73c-3.18-2-7.67-.32-9.36,2.83a7,7,0,0,0,2.83,9.35,133.5,133.5,0,0,0,14.45,7.73A7.06,7.06,0,0,0,226.47,213.45Z" transform="translate(-3.76 -3.4)"/><path d="M196.27,253.59c2.32-2.7,2.25-7.48-.73-9.75a134.35,134.35,0,0,1-12.44-10.67c-2.68-2.6-7.42-2-9.75.74a7,7,0,0,0,.74,9.74,135.87,135.87,0,0,0,12.43,10.68A7.08,7.08,0,0,0,196.27,253.59Z" transform="translate(-3.76 -3.4)"/><path d="M168.21,277.45c2.75-2.26,3.51-7,1-9.73a135.87,135.87,0,0,1-10.39-12.67c-2.18-3-7-3.23-9.72-1a7,7,0,0,0-1,9.73,134.29,134.29,0,0,0,10.39,12.67A7.07,7.07,0,0,0,168.21,277.45Z" transform="translate(-3.76 -3.4)"/></svg>